<mxfile host="app.diagrams.net" agent="Mozilla/5.0 (Windows NT 10.0; Win64; x64) AppleWebKit/537.36 (KHTML, like Gecko) Chrome/136.0.0.0 Safari/537.36" version="27.0.6">
  <diagram name="Page-1" id="BTc2GE2HdpGS5gOmtID4">
    <mxGraphModel dx="2038" dy="619" grid="1" gridSize="10" guides="1" tooltips="1" connect="1" arrows="1" fold="1" page="1" pageScale="1" pageWidth="850" pageHeight="1100" math="0" shadow="0">
      <root>
        <mxCell id="0" />
        <mxCell id="1" parent="0" />
        <mxCell id="UkyBqdKTy8mO848k9c-i-1" value="" style="endArrow=none;html=1;rounded=0;strokeWidth=4;" edge="1" parent="1">
          <mxGeometry width="50" height="50" relative="1" as="geometry">
            <mxPoint x="360.5" y="415" as="sourcePoint" />
            <mxPoint x="360" y="125" as="targetPoint" />
          </mxGeometry>
        </mxCell>
        <mxCell id="UkyBqdKTy8mO848k9c-i-2" value="Main Task&lt;div&gt;(protocol execution and data structures)&lt;/div&gt;" style="text;html=1;align=center;verticalAlign=middle;resizable=0;points=[];autosize=1;strokeColor=none;fillColor=none;" vertex="1" parent="1">
          <mxGeometry x="240" y="85" width="230" height="40" as="geometry" />
        </mxCell>
        <mxCell id="UkyBqdKTy8mO848k9c-i-9" value="" style="endArrow=none;html=1;rounded=0;strokeWidth=4;" edge="1" parent="1">
          <mxGeometry width="50" height="50" relative="1" as="geometry">
            <mxPoint x="120" y="420" as="sourcePoint" />
            <mxPoint x="120" y="130" as="targetPoint" />
          </mxGeometry>
        </mxCell>
        <mxCell id="UkyBqdKTy8mO848k9c-i-10" value="" style="endArrow=none;html=1;rounded=0;strokeWidth=4;entryX=0.515;entryY=1.144;entryDx=0;entryDy=0;entryPerimeter=0;" edge="1" parent="1">
          <mxGeometry width="50" height="50" relative="1" as="geometry">
            <mxPoint x="539.58" y="415.68" as="sourcePoint" />
            <mxPoint x="539.7800000000001" y="229.99999999999994" as="targetPoint" />
          </mxGeometry>
        </mxCell>
        <mxCell id="UkyBqdKTy8mO848k9c-i-11" value="Dispatcher task&amp;nbsp;&lt;div&gt;(sign and send messages, sign votes, vrf_prove)&lt;/div&gt;" style="text;html=1;align=center;verticalAlign=middle;resizable=0;points=[];autosize=1;strokeColor=none;fillColor=none;" vertex="1" parent="1">
          <mxGeometry x="-30" y="85" width="280" height="40" as="geometry" />
        </mxCell>
        <mxCell id="UkyBqdKTy8mO848k9c-i-12" value="Timer task&lt;div&gt;(Iteration timer)&lt;/div&gt;" style="text;html=1;align=center;verticalAlign=middle;resizable=0;points=[];autosize=1;strokeColor=none;fillColor=none;" vertex="1" parent="1">
          <mxGeometry x="490" y="195" width="100" height="40" as="geometry" />
        </mxCell>
        <mxCell id="UkyBqdKTy8mO848k9c-i-14" value="message_queue" style="rounded=0;whiteSpace=wrap;html=1;" vertex="1" parent="1">
          <mxGeometry x="450" y="150" width="120" height="40" as="geometry" />
        </mxCell>
        <mxCell id="UkyBqdKTy8mO848k9c-i-15" value="dispatcher_queue" style="rounded=0;whiteSpace=wrap;html=1;" vertex="1" parent="1">
          <mxGeometry x="150" y="190" width="120" height="20" as="geometry" />
        </mxCell>
        <mxCell id="UkyBqdKTy8mO848k9c-i-16" value="reset_timer (size 1)" style="rounded=0;whiteSpace=wrap;html=1;" vertex="1" parent="1">
          <mxGeometry x="400" y="280.00000000000006" width="120" height="20" as="geometry" />
        </mxCell>
        <mxCell id="UkyBqdKTy8mO848k9c-i-22" value="" style="endArrow=none;html=1;rounded=0;strokeWidth=4;" edge="1" parent="1">
          <mxGeometry width="50" height="50" relative="1" as="geometry">
            <mxPoint x="640" y="420" as="sourcePoint" />
            <mxPoint x="640" y="130" as="targetPoint" />
          </mxGeometry>
        </mxCell>
        <mxCell id="UkyBqdKTy8mO848k9c-i-23" value="" style="endArrow=none;html=1;rounded=0;strokeWidth=4;" edge="1" parent="1">
          <mxGeometry width="50" height="50" relative="1" as="geometry">
            <mxPoint x="650" y="420" as="sourcePoint" />
            <mxPoint x="650" y="130" as="targetPoint" />
          </mxGeometry>
        </mxCell>
        <mxCell id="UkyBqdKTy8mO848k9c-i-24" value="" style="endArrow=none;html=1;rounded=0;strokeWidth=4;" edge="1" parent="1">
          <mxGeometry width="50" height="50" relative="1" as="geometry">
            <mxPoint x="660" y="420" as="sourcePoint" />
            <mxPoint x="660" y="130" as="targetPoint" />
          </mxGeometry>
        </mxCell>
        <mxCell id="UkyBqdKTy8mO848k9c-i-25" value="Handle connection tasks, 1 per node&lt;div&gt;(read and verfify message signatures, verify certificates, vrf_verify)&lt;/div&gt;" style="text;html=1;align=center;verticalAlign=middle;resizable=0;points=[];autosize=1;strokeColor=none;fillColor=none;" vertex="1" parent="1">
          <mxGeometry x="460" y="85" width="380" height="40" as="geometry" />
        </mxCell>
        <mxCell id="UkyBqdKTy8mO848k9c-i-26" value="" style="endArrow=classic;html=1;rounded=0;entryX=1;entryY=0.75;entryDx=0;entryDy=0;" edge="1" parent="1" target="UkyBqdKTy8mO848k9c-i-14">
          <mxGeometry width="50" height="50" relative="1" as="geometry">
            <mxPoint x="640" y="180" as="sourcePoint" />
            <mxPoint x="720" y="340" as="targetPoint" />
            <Array as="points">
              <mxPoint x="610" y="180" />
            </Array>
          </mxGeometry>
        </mxCell>
        <mxCell id="UkyBqdKTy8mO848k9c-i-28" value="" style="endArrow=classic;html=1;rounded=0;entryX=1;entryY=0.5;entryDx=0;entryDy=0;" edge="1" parent="1" target="UkyBqdKTy8mO848k9c-i-14">
          <mxGeometry width="50" height="50" relative="1" as="geometry">
            <mxPoint x="650" y="170" as="sourcePoint" />
            <mxPoint x="580" y="170" as="targetPoint" />
            <Array as="points">
              <mxPoint x="620" y="170" />
            </Array>
          </mxGeometry>
        </mxCell>
        <mxCell id="UkyBqdKTy8mO848k9c-i-29" value="" style="endArrow=classic;html=1;rounded=0;entryX=1;entryY=0.25;entryDx=0;entryDy=0;" edge="1" parent="1" target="UkyBqdKTy8mO848k9c-i-14">
          <mxGeometry width="50" height="50" relative="1" as="geometry">
            <mxPoint x="660" y="160" as="sourcePoint" />
            <mxPoint x="590" y="160" as="targetPoint" />
            <Array as="points">
              <mxPoint x="630" y="160" />
            </Array>
          </mxGeometry>
        </mxCell>
        <mxCell id="UkyBqdKTy8mO848k9c-i-30" value="" style="endArrow=classic;html=1;rounded=0;" edge="1" parent="1">
          <mxGeometry width="50" height="50" relative="1" as="geometry">
            <mxPoint x="450" y="169.57999999999998" as="sourcePoint" />
            <mxPoint x="360" y="170" as="targetPoint" />
            <Array as="points">
              <mxPoint x="420" y="169.57999999999998" />
            </Array>
          </mxGeometry>
        </mxCell>
        <mxCell id="UkyBqdKTy8mO848k9c-i-31" value="" style="endArrow=classic;html=1;rounded=0;entryX=1;entryY=0.5;entryDx=0;entryDy=0;" edge="1" parent="1" target="UkyBqdKTy8mO848k9c-i-15">
          <mxGeometry width="50" height="50" relative="1" as="geometry">
            <mxPoint x="360" y="200" as="sourcePoint" />
            <mxPoint x="310" y="199.57999999999998" as="targetPoint" />
            <Array as="points" />
          </mxGeometry>
        </mxCell>
        <mxCell id="UkyBqdKTy8mO848k9c-i-32" value="" style="endArrow=classic;html=1;rounded=0;" edge="1" parent="1">
          <mxGeometry width="50" height="50" relative="1" as="geometry">
            <mxPoint x="140" y="200" as="sourcePoint" />
            <mxPoint x="120" y="200" as="targetPoint" />
            <Array as="points">
              <mxPoint x="150" y="199.57999999999998" />
            </Array>
          </mxGeometry>
        </mxCell>
        <mxCell id="UkyBqdKTy8mO848k9c-i-33" value="" style="endArrow=classic;html=1;rounded=0;entryX=0;entryY=0.5;entryDx=0;entryDy=0;" edge="1" parent="1" target="UkyBqdKTy8mO848k9c-i-16">
          <mxGeometry width="50" height="50" relative="1" as="geometry">
            <mxPoint x="360" y="290" as="sourcePoint" />
            <mxPoint x="450" y="250" as="targetPoint" />
            <Array as="points" />
          </mxGeometry>
        </mxCell>
        <mxCell id="UkyBqdKTy8mO848k9c-i-34" value="" style="endArrow=classic;html=1;rounded=0;entryX=0;entryY=0.5;entryDx=0;entryDy=0;" edge="1" parent="1">
          <mxGeometry width="50" height="50" relative="1" as="geometry">
            <mxPoint x="520" y="289.58" as="sourcePoint" />
            <mxPoint x="540" y="289.58" as="targetPoint" />
            <Array as="points" />
          </mxGeometry>
        </mxCell>
        <mxCell id="UkyBqdKTy8mO848k9c-i-35" value="" style="endArrow=classic;html=1;rounded=0;entryX=0.5;entryY=1;entryDx=0;entryDy=0;" edge="1" parent="1" target="UkyBqdKTy8mO848k9c-i-15">
          <mxGeometry width="50" height="50" relative="1" as="geometry">
            <mxPoint x="540" y="340" as="sourcePoint" />
            <mxPoint x="390" y="350" as="targetPoint" />
            <Array as="points">
              <mxPoint x="210" y="340" />
            </Array>
          </mxGeometry>
        </mxCell>
      </root>
    </mxGraphModel>
  </diagram>
</mxfile>
